<svg id="_0198_adventure_1" xmlns="http://www.w3.org/2000/svg" xmlns:xlink="http://www.w3.org/1999/xlink" viewBox="0 0 500 500" data-imageid="adventure-1-70" imageName="Adventure 1" class="illustrations_image" style="width: 176px;"><defs><style>.cls-1_adventure-1-70{fill:url(#linear-gradient);}.cls-1_adventure-1-70,.cls-2_adventure-1-70,.cls-3_adventure-1-70,.cls-4_adventure-1-70,.cls-5_adventure-1-70,.cls-6_adventure-1-70,.cls-7_adventure-1-70,.cls-8_adventure-1-70,.cls-9_adventure-1-70,.cls-10_adventure-1-70,.cls-11_adventure-1-70,.cls-12_adventure-1-70,.cls-13_adventure-1-70,.cls-14_adventure-1-70,.cls-15_adventure-1-70,.cls-16_adventure-1-70,.cls-17_adventure-1-70,.cls-18_adventure-1-70,.cls-19_adventure-1-70,.cls-20_adventure-1-70,.cls-21_adventure-1-70,.cls-22_adventure-1-70,.cls-23_adventure-1-70,.cls-24_adventure-1-70,.cls-25_adventure-1-70,.cls-26_adventure-1-70{stroke-width:0px;}.cls-2_adventure-1-70{fill:url(#linear-gradient-11-adventure-1-70);}.cls-3_adventure-1-70{fill:url(#linear-gradient-12-adventure-1-70);}.cls-4_adventure-1-70{fill:url(#linear-gradient-13-adventure-1-70);}.cls-5_adventure-1-70{fill:url(#linear-gradient-10-adventure-1-70);}.cls-6_adventure-1-70{fill:url(#linear-gradient-17-adventure-1-70);}.cls-7_adventure-1-70{fill:url(#linear-gradient-16-adventure-1-70);}.cls-8_adventure-1-70{fill:url(#linear-gradient-19-adventure-1-70);}.cls-9_adventure-1-70{fill:url(#linear-gradient-15-adventure-1-70);}.cls-10_adventure-1-70{fill:url(#linear-gradient-18-adventure-1-70);}.cls-11_adventure-1-70{fill:url(#linear-gradient-14-adventure-1-70);}.cls-12_adventure-1-70{fill:url(#linear-gradient-20-adventure-1-70);}.cls-13_adventure-1-70{opacity:.53;}.cls-13_adventure-1-70,.cls-22_adventure-1-70{isolation:isolate;}.cls-13_adventure-1-70,.cls-22_adventure-1-70,.cls-26_adventure-1-70{fill:#68e1fd;}.cls-14_adventure-1-70{fill:url(#linear-gradient-4-adventure-1-70);}.cls-15_adventure-1-70{fill:url(#linear-gradient-2-adventure-1-70);}.cls-16_adventure-1-70{fill:url(#linear-gradient-3-adventure-1-70);}.cls-17_adventure-1-70{fill:url(#linear-gradient-8-adventure-1-70);}.cls-18_adventure-1-70{fill:url(#linear-gradient-9-adventure-1-70);}.cls-19_adventure-1-70{fill:url(#linear-gradient-7-adventure-1-70);}.cls-20_adventure-1-70{fill:url(#linear-gradient-5-adventure-1-70);}.cls-21_adventure-1-70{fill:url(#linear-gradient-6-adventure-1-70);}.cls-22_adventure-1-70{opacity:.24;}.cls-23_adventure-1-70{fill:#606161;}.cls-24_adventure-1-70{fill:#fff;}.cls-25_adventure-1-70{fill:#ffb4a3;}</style><linearGradient id="linear-gradient-adventure-1-70" x1="325.1" y1="2864.91" x2="356.44" y2="2864.91" gradientTransform="translate(-48.19 3019.54) scale(1 -1)" gradientUnits="userSpaceOnUse"><stop offset="0" stop-color="#010101" stop-opacity="0"/><stop offset=".95" stop-color="#010101"/></linearGradient><linearGradient id="linear-gradient-2-adventure-1-70" x1="370.66" y1="2758.39" x2="336.64" y2="2794.16" xlink:href="#linear-gradient-adventure-1-70"/><linearGradient id="linear-gradient-3-adventure-1-70" x1="381.01" y1="2740.58" x2="381.57" y2="2786.25" gradientTransform="translate(-48.19 3019.54) scale(1 -1)" gradientUnits="userSpaceOnUse"><stop offset="0" stop-color="#fff" stop-opacity="0"/><stop offset=".95" stop-color="#fff"/></linearGradient><linearGradient id="linear-gradient-4-adventure-1-70" x1="325.1" y1="2732.43" x2="353.04" y2="2732.43" xlink:href="#linear-gradient-3-adventure-1-70"/><linearGradient id="linear-gradient-5-adventure-1-70" x1="346.64" y1="2848.73" x2="371.2" y2="2848.73" xlink:href="#linear-gradient-adventure-1-70"/><linearGradient id="linear-gradient-6-adventure-1-70" x1="342.73" y1="2869.31" x2="343.25" y2="2864.61" gradientTransform="translate(-31 3019.63) scale(1 -1)" xlink:href="#linear-gradient-adventure-1-70"/><linearGradient id="linear-gradient-7-adventure-1-70" x1="355.63" y1="2870.1" x2="355.74" y2="2862.26" gradientTransform="translate(-31 3019.63) scale(1 -1)" xlink:href="#linear-gradient-adventure-1-70"/><linearGradient id="linear-gradient-8-adventure-1-70" x1="386.59" y1="2872.91" x2="386.9" y2="2848.46" gradientTransform="translate(-31 3019.63) scale(1 -1)" xlink:href="#linear-gradient-adventure-1-70"/><linearGradient id="linear-gradient-9-adventure-1-70" x1="365.54" y1="2803.71" x2="304.82" y2="2865.53" xlink:href="#linear-gradient-3-adventure-1-70"/><linearGradient id="linear-gradient-10-adventure-1-70" x1="340.75" y1="2829.4" x2="318.05" y2="2883.01" xlink:href="#linear-gradient-adventure-1-70"/><linearGradient id="linear-gradient-11-adventure-1-70" x1="332.18" y1="2833.8" x2="328.21" y2="2849.05" xlink:href="#linear-gradient-3-adventure-1-70"/><linearGradient id="linear-gradient-12-adventure-1-70" x1="279.74" y1="2704.98" x2="285.31" y2="2565.17" xlink:href="#linear-gradient-adventure-1-70"/><linearGradient id="linear-gradient-13-adventure-1-70" x1="276.86" y1="2755.59" x2="300.25" y2="2346.2" xlink:href="#linear-gradient-adventure-1-70"/><linearGradient id="linear-gradient-14-adventure-1-70" x1="177.97" y1="2748.85" x2="194.48" y2="2748.85" xlink:href="#linear-gradient-3-adventure-1-70"/><linearGradient id="linear-gradient-15-adventure-1-70" x1="162.99" y1="2711.64" x2="175.25" y2="2760.65" xlink:href="#linear-gradient-3-adventure-1-70"/><linearGradient id="linear-gradient-16-adventure-1-70" x1="157.51" y1="2769.96" x2="174.96" y2="2769.96" xlink:href="#linear-gradient-adventure-1-70"/><linearGradient id="linear-gradient-17-adventure-1-70" x1="153.55" y1="2753.02" x2="132.38" y2="2762.76" xlink:href="#linear-gradient-3-adventure-1-70"/><linearGradient id="linear-gradient-18-adventure-1-70" x1="199.11" y1="2780.97" x2="200.36" y2="2773.59" xlink:href="#linear-gradient-adventure-1-70"/><linearGradient id="linear-gradient-19-adventure-1-70" x1="172.8" y1="2782.49" x2="173.39" y2="2779" gradientTransform="translate(-31 3019.63) scale(1 -1)" xlink:href="#linear-gradient-adventure-1-70"/><linearGradient id="linear-gradient-20-adventure-1-70" x1="178.36" y1="2748.37" x2="92.82" y2="2675.3" xlink:href="#linear-gradient-adventure-1-70"/></defs><path id="background_adventure-1-70" class="cls-22_adventure-1-70 targetColor" d="M496.52,292.12c-.66,5.62-1.63,11.2-2.9,16.71-2.23,9.46-5.67,18.57-11.07,26.52-.57.83-1.16,1.66-1.78,2.46-16.07,21.22-44.22,28.88-70.62,32-43.38,5.13-87.27,1.6-130.95,2.2-70.09.92-140.56,12.43-209.97,2.46-18.01-2.55-38.81-9.14-50.41-24.18-1.75-2.28-3.26-4.72-4.51-7.3-5.19-10.65-7.89-23.68-8.9-37.12-1.13-17.34-.02-34.75,3.3-51.81,6.17-31.51,22.43-61.42,47.33-81.72,20.32-16.59,45.99-26.73,62.93-46.73,17.43-20.56,23.95-49.64,44.66-66.89,10.65-8.89,24.09-13.74,37.51-17.3,25.34-6.74,52.04-9.58,77.89-5.3,25.84,4.28,50.92,16.15,68.61,35.52,24.42,26.68,34.24,66.23,64.21,86.49,13.98,9.44,31.01,13.56,45.19,22.73,17.43,11.27,29.5,29.7,35.52,49.56,6.02,19.86,6.43,41.1,3.97,61.72Z" style="fill: rgb(104, 225, 253);"/><g id="character_adventure-1-70"><path class="cls-25_adventure-1-70" d="M305.28,151.51c-1.83-1.58-3.86-3.23-6.27-3.4-2.27-.16-4.51,1.1-6.06,2.8-1.46,1.79-2.63,3.78-3.49,5.92-.8,1.53-1.36,3.16-1.66,4.86-.33,2.55.5,5.09.71,7.65.11,1.42.05,2.91.64,4.2.75,1.47,2.12,2.52,3.73,2.87,1.6.33,3.25.27,4.81-.2.57-.1,1.09-.36,1.52-.76.94-1.02.28-2.68.64-4.02.43-1.16,1.34-2.07,2.49-2.51,1.14-.43,2.24-.95,3.29-1.57,1.1-.78,1.87-1.96,2.14-3.28.26-1.29.05-2.71.69-3.86.26-.47.64-.86.91-1.33.31-.45.36-1.02.12-1.52-.2-.27-.46-.49-.76-.66-1.23-.87-2.09-2.17-2.41-3.64-.12-.64-.49-1.21-1.04-1.57Z"/><path class="cls-23_adventure-1-70" d="M296.37,164.06c-1.2-.6-2.26-1.45-3.11-2.49-1.05,1.08-1.1,2.79-.11,3.93.2.17.36.38.48.61.05.16.08.33.08.5l.14,5.1c0,.67-.19,1.58-.86,1.56-.25-.04-.48-.14-.67-.31-1.06-.72-2.31-1.14-3.59-1.21-.43.01-.85-.05-1.26-.17-.37-.18-.7-.44-.96-.76l-2.12-2.2c-.29-.26-.52-.58-.67-.95-.09-.38-.09-.78,0-1.16l.76-5.23c.1-1.05.34-2.08.72-3.07.38-.78.89-1.49,1.52-2.1,1.45-1.52,3.5-2.63,5.57-2.33,1.95.3,3.41,1.96,3.43,3.94-.09,2.14.14,4.27.67,6.34Z"/><path class="cls-26_adventure-1-70 targetColor" d="M289.1,139.8c-3.29-.06-6.89,0-9.42,2.1-2.91,2.44-3.32,6.89-2.18,10.52.88,2.79,2.54,5.51,2.16,8.41-.27,2.1-1.6,4.2-.89,6.19.62,1.74,2.69,2.64,4.55,2.43,1.83-.34,3.52-1.22,4.83-2.55,4.08-3.63,6.94-8.78,11.83-11.24,3.58-1.81,11.73-5.06,6.64-10.13-4.55-4.53-11.46-5.63-17.52-5.74Z" style="fill: rgb(104, 225, 253);"/><path class="cls-1_adventure-1-70" d="M289.1,139.8c-3.29-.06-6.89,0-9.42,2.1-2.91,2.44-3.32,6.89-2.18,10.52.88,2.79,2.54,5.51,2.16,8.41-.27,2.1-1.6,4.2-.89,6.19.62,1.74,2.69,2.64,4.55,2.43,1.83-.34,3.52-1.22,4.83-2.55,4.08-3.63,6.94-8.78,11.83-11.24,3.58-1.81,11.73-5.06,6.64-10.13-4.55-4.53-11.46-5.63-17.52-5.74Z"/><path class="cls-23_adventure-1-70" d="M328.27,216.24c.99-.09,1.99.13,2.85.64.63.55,1.07,1.27,1.26,2.08.99,3.23.54,6.71,0,10.04-.8,4.97-.1,12.97-1.21,17.87-.36,1.6-2.49.25-3.79,1.28-1.82,1.46-4.49.94-6.71,1.67l-.76-17.59c0-.55-.11-1.21-.61-1.45-.26-.11-.55-.14-.83-.08-3.14.27-6.24.83-9.27,1.69-2.19.62-4.42,1.44-6.02,3.03-2.92,2.94-3.03,7.58-3.33,11.68-.72,9.17-3.49,18.05-8.1,26.01-3.29,0-6.57-.38-9.78-1.11-.05-1.63.86-3.11,1.44-4.63,1.02-2.63,1.06-5.52.96-8.33-.21-6.26-1.09-12.5-.95-18.77.14-6.27,1.39-12.71,4.99-17.84,3.79-5.36,10.52-8.92,17.1-7.58,7.53,1.55,15.08,1.28,22.74,1.38Z"/><path class="cls-15_adventure-1-70" d="M328.27,216.24c.99-.09,1.99.13,2.85.64.63.55,1.07,1.27,1.26,2.08.99,3.23.54,6.71,0,10.04-.8,4.97-.23,13.94-1.36,18.84-.36,1.6-2.34-.72-3.62.31-1.82,1.46-4.49.94-6.71,1.67l-.76-17.59c0-.55-.11-1.21-.61-1.45-.26-.11-.55-.14-.83-.08-3.14.27-6.24.83-9.27,1.69-2.19.62-4.42,1.44-6.02,3.03-2.92,2.94-3.03,7.58-3.33,11.68-.72,9.17-3.49,18.05-8.1,26.01-3.29,0-6.57-.38-9.78-1.11-.05-1.63.86-3.11,1.44-4.63,1.02-2.63,1.06-5.52.96-8.33-.21-6.26-1.09-12.5-.95-18.77.14-6.27,1.39-12.71,4.99-17.84,3.79-5.36,10.52-8.92,17.1-7.58,7.51,1.55,15.05,1.28,22.71,1.38Z"/><path class="cls-26_adventure-1-70 targetColor" d="M332.11,245.26c.35-.05.71-.01,1.04.11.64.3.84,1.1.96,1.8,1.11,6.63,1.72,13.33,1.83,20.05,1.35-1.26,2.78-2.42,4.28-3.49.63-.52,1.38-.87,2.18-1.03,1.07-.07,2.12.35,2.84,1.14.71.79,1.29,1.69,1.7,2.67.38.59.52,1.29.4,1.98-.18.45-.47.84-.85,1.14-6.06,5.5-13.12,9.78-20.8,12.61-.82-3.4-.09-6.98-.36-10.46-.39-5.21-2.92-9.92-4.76-14.71-.83-2.19-1.86-4.71-1.86-7.1,0-2.1,1.3-2.85,3.19-3.28,3.35-.76,6.75-1.24,10.18-1.42Z" style="fill: rgb(104, 225, 253);"/><path class="cls-26_adventure-1-70 targetColor" d="M294.34,269.74c1.46,6.57,1.65,13.35.55,19.99-.3,1.78-.52,3.99.97,5.01,1.08.76,2.54.43,3.85.55,3.21.41,5.49,3.32,5.11,6.53-.04.48-.25.93-.6,1.27-.39.26-.84.4-1.31.39-7.65.74-15.33,1.2-23.03,1.37-.7,0-1.52-.04-1.89-.63-.16-.31-.23-.66-.21-1.01-.33-9.04-1.52-18.94-.39-27.91.99-7.99,11.2-5.58,16.96-5.55Z" style="fill: rgb(104, 225, 253);"/><path class="cls-16_adventure-1-70" d="M332.11,245.26c.35-.05.71-.01,1.04.11.64.3.84,1.1.96,1.8,1.11,6.63,1.72,13.33,1.83,20.05,1.35-1.26,2.78-2.42,4.28-3.49.63-.52,1.38-.87,2.18-1.03,1.07-.07,2.12.35,2.84,1.14.71.79,1.29,1.69,1.7,2.67.38.59.52,1.29.4,1.98-.18.45-.47.84-.85,1.14-6.06,5.5-13.12,9.78-20.8,12.61-.82-3.4-.09-6.98-.36-10.46-.39-5.21-2.92-9.92-4.76-14.71-.83-2.19-1.86-4.71-1.86-7.1,0-2.1,1.3-2.85,3.19-3.28,3.35-.76,6.75-1.24,10.18-1.42Z"/><path class="cls-14_adventure-1-70" d="M294.34,269.74c1.46,6.57,1.65,13.35.55,19.99-.3,1.78-.52,3.99.97,5.01,1.08.76,2.54.43,3.85.55,3.21.41,5.49,3.32,5.11,6.53-.04.48-.25.93-.6,1.27-.39.26-.84.4-1.31.39-7.65.74-15.33,1.2-23.03,1.37-.7,0-1.52-.04-1.89-.63-.16-.31-.23-.66-.21-1.01-.33-9.04-1.52-18.94-.39-27.91.99-7.99,11.2-5.58,16.96-5.55Z"/><path class="cls-26_adventure-1-70 targetColor" d="M309.17,169.25c2.61-2.13,4.39-5.09,5.82-8.14,2.64,1.31,5.09,2.98,7.27,4.96.71.45.95,1.36.56,2.1-2.33,6.91-8.56,11.76-15.83,12.33-2.49.14-5.17-.32-6.96-2.05-1.56-1.52-2.56-5.55-.07-6.63,1.08-.47,3.44.17,4.8-.22,1.61-.48,3.11-1.27,4.41-2.34Z" style="fill: rgb(104, 225, 253);"/><path class="cls-20_adventure-1-70" d="M309.17,169.25c2.61-2.13,4.39-5.09,5.82-8.14,2.64,1.31,5.09,2.98,7.27,4.96.71.45.95,1.36.56,2.1-2.33,6.91-8.56,11.76-15.83,12.33-2.49.14-5.17-.32-6.96-2.05-1.56-1.52-2.56-5.55-.07-6.63,1.08-.47,3.44.17,4.8-.22,1.61-.48,3.11-1.27,4.41-2.34Z"/><path class="cls-25_adventure-1-70" d="M317.72,154.13c.05-1.52.16-3.19,1.23-4.27s2.67-1.19,4.16-1.27l3.42-.18c.63-.1,1.28,0,1.85.29.76.48.92,1.52,1.04,2.36.17,1.37.32,2.84-.33,4.07-.58.88-1.31,1.65-2.15,2.27-1.25,1.11-2.32,2.42-3.16,3.87-.82,1.45-1.44,3.03-2.64,4.2-.49.53-1.18.85-1.91.87-1.07-.15-1.91-1-2.07-2.07-.3-1.52.3-3.28.34-4.83.07-1.77.13-3.55.21-5.33Z"/><rect class="cls-26_adventure-1-70 targetColor" x="307.09" y="150.19" width="9.58" height="3.05" style="fill: rgb(104, 225, 253);"/><rect class="cls-21_adventure-1-70" x="307.09" y="150.19" width="9.58" height="3.05"/><rect class="cls-26_adventure-1-70 targetColor" x="316.06" y="147.87" width="17.2" height="6.75" style="fill: rgb(104, 225, 253);"/><rect class="cls-26_adventure-1-70 targetColor" x="333.15" y="145.71" width="45.04" height="11.9" style="fill: rgb(104, 225, 253);"/><rect class="cls-19_adventure-1-70" x="316.06" y="147.87" width="17.2" height="6.75"/><polyline class="cls-17_adventure-1-70" points="333.13 145.71 378.18 145.71 378.18 157.62 333.13 157.62"/><path class="cls-25_adventure-1-70" d="M336.53,148.88c.59-.16,1.2.26,1.82.26,1.41,0,1.91-1.87,2.99-2.78.92-.64,2.07-.87,3.17-.63,1.1.17,2.17.54,3.27.6.43-.02.87.04,1.28.17,1.09.48,1.09,2,.92,3.17-.32,2.16-.68,4.43-2.07,6.11-1.72,2.1-4.76,2.93-6.06,5.3-.21.48-.49.92-.83,1.31-.73.52-1.67.63-2.51.3-2.4-.67-5.3-3.33-4.95-6.06.22-1.52,1.38-2.74,1.75-4.2.22-.98-.07-3.22,1.21-3.57Z"/><path class="cls-26_adventure-1-70 targetColor" d="M331.42,156.29c.98,2.01,2.66,3.57,4.3,5.08l5.66,5.21c-4.55,4.05-8.33,8.97-13.05,12.83-6.06,4.93-13.48,7.86-20.75,10.72.08,5.85,0,11.49.05,17.34.12,2.82-.01,5.64-.39,8.44-.64,3.9-2.27,7.58-3.4,11.36-1.4,4.58-2.13,9.35-2.17,14.14-7.13.61-14.27.94-21.43,1-4.21,0-8.77-.16-12.08-2.78,4.8-8.76,9.69-17.8,10.86-27.71,1.2-10.23-1.64-20.71.33-30.82.51-2.64,1.47-5.38,3.64-6.96,3.24-2.36,7.7-1.25,11.61-.46,4.74.94,9.58,1.25,14.4.94,1.58-.02,3.15-.36,4.6-.99,1.8-.9,3.08-2.54,4.37-4.08,4.08-4.84,8.35-9.61,13.46-13.25Z" style="fill: rgb(104, 225, 253);"/><path class="cls-18_adventure-1-70" d="M331.42,156.29c.98,2.01,2.66,3.57,4.3,5.08l5.66,5.21c-4.55,4.05-8.33,8.97-13.05,12.83-6.06,4.93-13.48,7.86-20.75,10.72.08,5.85,0,11.49.05,17.34.12,2.82-.01,5.64-.39,8.44-.64,3.9-2.27,7.58-3.4,11.36-1.4,4.58-2.13,9.35-2.17,14.14-7.13.61-14.27.94-21.43,1-4.21,0-8.77-.16-12.08-2.78,4.8-8.76,9.69-17.8,10.86-27.71,1.2-10.23-1.64-20.71.33-30.82.51-2.64,1.47-5.38,3.64-6.96,3.24-2.36,7.7-1.25,11.61-.46,4.74.94,9.58,1.25,14.4.94,1.58-.02,3.15-.36,4.6-.99,1.8-.9,3.08-2.54,4.37-4.08,4.08-4.84,8.35-9.61,13.46-13.25Z"/><path class="cls-5_adventure-1-70" d="M278.79,194.16c3.77-.28,7.05-2.71,8.4-6.24.62-1.7.76-3.61,1.79-5.11.94-1.38,2.47-2.21,3.94-2.99,1.74-.98,3.55-1.82,5.42-2.51,1.07-.28,2.11-.69,3.1-1.2.2-.1.36-.27.43-.48.01-.28-.13-.54-.37-.68-.78-.51-1.68-.82-2.61-.91-2.7-.45-5.48-.91-8.14-.29-2.23.65-4.32,1.7-6.18,3.09-1.63.95-3.04,2.24-4.12,3.79-1.27,2.1-1.33,4.64-1.8,6.98-.14.7-.33,6.58.14,6.55Z"/><path class="cls-26_adventure-1-70 targetColor" d="M268.56,174.59c-1.1.39-1.68,1.59-1.31,2.69.73,4.92,2.4,9.66,4.9,13.96.23.65.95.99,1.61.76,0,0,0,0,0,0,2.5-.41,4.8-1.63,6.56-3.45,1.45-1.52,2.41-3.48,3.63-5.22,2.28-3.15,5.34-5.65,8.87-7.27,3.46-1.7,3.53-4.31-.33-5.98-6.97-3-17.88.92-23.94,4.51Z" style="fill: rgb(104, 225, 253);"/><path class="cls-2_adventure-1-70" d="M268.56,174.59c-1.1.39-1.68,1.59-1.31,2.69.73,4.92,2.4,9.66,4.9,13.96.23.65.95.99,1.61.76,0,0,0,0,0,0,2.5-.41,4.8-1.63,6.56-3.45,1.45-1.52,2.41-3.48,3.63-5.22,2.28-3.15,5.34-5.65,8.87-7.27,3.46-1.7,3.53-4.31-.33-5.98-6.97-3-17.88.92-23.94,4.51Z"/></g><g id="boat_adventure-1-70"><path class="cls-26_adventure-1-70 targetColor" d="M383.36,223.1c-7.99-1.39-14.9,6.06-17.81,13.64-2.91,7.58-3.67,16.06-8.11,22.84-4.3,6.58-11.46,10.61-18.34,14.4-11.36,6.28-22.96,12.64-35.61,15.62-9.97,2.35-20.34,1.85-30.56,2.53-121.65,8.1-167.21-7.58-203.81-31.31,5.32,16.58,11.78,32.79,19.31,48.49,4.64,9.64,9.81,19.28,17.56,26.67,8.83,8.42,20.42,13.33,32.11,16.84,45.36,13.6,93.95,8.21,141,2.68,14.4-1.68,28.94-3.42,42.43-8.66,26.65-10.34,47.13-34.47,54.62-62.04,2.41-8.88,3.57-18.05,4.71-27.18,1.4-11.4,1.07-23.12,2.5-34.5Z" style="fill: rgb(104, 225, 253);"/><path class="cls-3_adventure-1-70" d="M383.35,223.1c-1.42,11.36-1.1,23.09-2.52,34.48-.23,1.96-.5,3.92-.76,5.87-.84,7.19-2.16,14.31-3.95,21.33-4.07,14.77-11.62,28.35-22.03,39.59-9.01,9.86-20.15,17.53-32.58,22.43-13.5,5.25-28.03,6.97-42.43,8.66-47.03,5.52-95.63,10.92-141.01-2.7-11.69-3.5-23.26-8.4-32.1-16.83-1.1-1.07-2.17-2.17-3.14-3.32-6.06-6.82-10.45-15.08-14.4-23.36-5.16-10.77-7.33-15.22-9.85-22.31h0c-1.15-3.24-2.4-7.03-4.06-12.19,36.62,23.71,149.4,25.87,175.45,25.9,10.24,0,43.65-8.7,53.62-11.07,12.68-2.97,24.24-9.32,35.61-15.61,6.86-3.79,14.03-7.83,18.34-14.4,4.42-6.77,5.2-15.26,8.1-22.82,2.9-7.56,9.74-15.07,17.72-13.68Z"/><path class="cls-4_adventure-1-70" d="M380.06,263.45c-.84,7.19-2.16,14.31-3.95,21.33-4.07,14.77-11.62,28.35-22.03,39.59-11.52,7.58-30.21,15.4-58.96,17.03-52.55,3.03-146.02,3.32-192.31-8.78-6.06-6.82-10.45-15.08-14.4-23.36-5.16-10.77-7.33-15.22-9.85-22.31,13,8.05,59.02,31.49,146.29,24.54,104.84-8.33,128.25-13.8,148.3-42.61l6.9-5.43Z"/></g><g id="dog_adventure-1-70"><path class="cls-26_adventure-1-70 targetColor" d="M146.15,288.17c.15.53.28,1.2-.13,1.56-.34.23-.76.31-1.17.22-4.44-.43-8.85-1.15-13.2-2.14-1.03-.02-1.86-.87-1.84-1.9,0-.11.01-.22.03-.32-.19-6.94.09-13.89.84-20.79.42-3.83.95-9.71,4.24-12.32,4.01-3.17,5.27,1.32,5.64,4.6,1.2,10.56,2.59,20.88,5.58,31.09Z" style="fill: rgb(104, 225, 253);"/><path class="cls-11_adventure-1-70" d="M146.15,288.17c.15.53.28,1.2-.13,1.56-.34.23-.76.31-1.17.22-4.44-.43-8.85-1.15-13.2-2.14-1.03-.02-1.86-.87-1.84-1.9,0-.11.01-.22.03-.32-.19-6.94.09-13.89.84-20.79.42-3.83.95-9.71,4.24-12.32,4.01-3.17,5.27,1.32,5.64,4.6,1.2,10.56,2.59,20.88,5.58,31.09Z"/><path class="cls-26_adventure-1-70 targetColor" d="M107.27,243.66c2.92-6.14,6.96-12.12,13.03-15.15,4.35-2.17,9.38-2.63,14.24-2.33,4.16.27,8.76,1.36,11.03,4.86,1.64,2.55,1.78,5.99,3.92,8.14,1.69,1.69,4.42,2.33,5.54,4.44,1.36,2.58-.67,5.84-3.32,7.04s-5.68,1.02-8.58,1.19c-1.24.08-2.61.3-3.38,1.27-.54.83-.81,1.82-.76,2.81l-1.42,27.44c.05,1.15-.23,2.28-.82,3.27-1.39,1.87-4.27,1.45-6.52.84l-22.52-6.12c-2.34-.64-4.77-1.32-6.61-2.89-3.95-3.39-.87-10.73-.11-15.15,1.19-6.8,3.29-13.41,6.27-19.65Z" style="fill: rgb(104, 225, 253);"/><path class="cls-26_adventure-1-70 targetColor" d="M111.45,245.24c-1.6,5.52-3.11,11.79-.17,16.72.24.48.62.87,1.08,1.13.47.17.98.2,1.47.07,2.07-.5,3.85-1.79,4.97-3.6,1.1-1.8,1.84-3.8,2.17-5.88.97-5.01.76-10.2,1.89-15.15.58-2.62,1.76-5.4,4.18-6.55-2.73-.1-5.38.97-7.27,2.95-1.85,2.02-3.17,4.46-4.73,6.71-1.24,1.77-3.01,1.52-3.61,3.61Z" style="fill: rgb(104, 225, 253);"/><path class="cls-26_adventure-1-70 targetColor" d="M96.31,255.91c-.41-2.95-.86-6.11-2.9-8.26-2.02-2.05-5.05-2.72-7.75-1.72-2.66,1.08-4.49,3.56-4.74,6.42-.05.36-.01.73.1,1.08.3.76,1.19,1.12,1.86,1.63,2.08,1.56,2.02,4.61,2.59,7.14.64,2.81,2.22,5.3,3.79,7.7,1.86,2.77,4.14,5.73,7.42,6.25,4.86.76,2.59-3.95,1.92-6.31-1.22-4.46-1.65-9.35-2.28-13.92Z" style="fill: rgb(104, 225, 253);"/><path class="cls-9_adventure-1-70" d="M107.27,243.66c2.92-6.14,6.96-12.12,13.03-15.15,4.35-2.17,9.38-2.63,14.24-2.33,4.16.27,8.76,1.36,11.03,4.86,1.64,2.55,1.78,5.99,3.92,8.14,1.69,1.69,4.42,2.33,5.54,4.44,1.36,2.58-.67,5.84-3.32,7.04s-5.68,1.02-8.58,1.19c-1.24.08-2.61.3-3.38,1.27-.54.83-.81,1.82-.76,2.81l-1.42,27.44c.05,1.15-.23,2.28-.82,3.27-1.39,1.87-4.27,1.45-6.52.84l-22.52-6.12c-2.34-.64-4.77-1.32-6.61-2.89-3.95-3.39-.87-10.73-.11-15.15,1.19-6.8,3.29-13.41,6.27-19.65Z"/><path class="cls-7_adventure-1-70" d="M111.16,247.21c-1.59,5.52-3.11,11.8-.16,16.73.23.48.61.87,1.08,1.12.47.17.98.2,1.47.07,2.07-.5,3.85-1.79,4.97-3.6,1.09-1.8,1.83-3.79,2.17-5.87.97-5.01.76-10.21,1.89-15.15.59-2.62,1.76-5.4,4.19-6.55-2.74-.1-5.38.98-7.27,2.96-1.85,2.02-3.17,4.46-4.74,6.71-1.23,1.76-3,1.51-3.61,3.59Z"/><path class="cls-24_adventure-1-70" d="M109.79,245c-2.32,5.26-4.64,11.27-2.39,16.55.18.5.5.94.92,1.26.44.24.95.33,1.45.27,2.12-.22,4.06-1.27,5.41-2.91,1.33-1.64,2.32-3.52,2.92-5.54,1.63-4.83,2.12-10.01,3.89-14.79.93-2.52,2.46-5.12,5.02-5.94-2.69-.46-5.45.25-7.58,1.96-2.1,1.76-3.73,4-5.58,6.02-1.48,1.6-3.2,1.12-4.08,3.11Z"/><path class="cls-6_adventure-1-70" d="M96.31,255.91c-.41-2.95-.86-6.11-2.9-8.26-2.02-2.05-5.05-2.72-7.75-1.72-2.66,1.08-4.49,3.56-4.74,6.42-.05.36-.01.73.1,1.08.3.76,1.19,1.12,1.86,1.63,2.08,1.56,2.02,4.61,2.59,7.14.64,2.81,2.22,5.3,3.79,7.7,1.86,2.77,4.14,5.73,7.42,6.25,4.86.76,2.59-3.95,1.92-6.31-1.22-4.46-1.65-9.35-2.28-13.92Z"/><path class="cls-26_adventure-1-70 targetColor" d="M151.12,239.07c-.46-.12-.94-.14-1.41-.06-.48.09-.86.43-1.02.89-.17.76.47,1.36,1.05,1.83l1.34,1.09c.35.33.76.58,1.2.76.46.17.97.07,1.32-.27.18-.23.3-.51.33-.8.15-.94-.12-1.9-.76-2.61-.66-.7-1.68-.92-2.57-.55" style="fill: rgb(104, 225, 253);"/><path class="cls-10_adventure-1-70" d="M151.12,239.07c-.46-.12-.94-.14-1.41-.06-.48.09-.86.43-1.02.89-.17.76.47,1.36,1.05,1.83l1.34,1.09c.35.33.76.58,1.2.76.46.17.97.07,1.32-.27.18-.23.3-.51.33-.8.15-.94-.12-1.9-.76-2.61-.66-.7-1.68-.92-2.57-.55"/><circle class="cls-8_adventure-1-70" cx="142.02" cy="238.43" r="1.2"/><path class="cls-12_adventure-1-70" d="M119.37,267.44c-.03,1.61.15,3.22.52,4.8.38,1.42,1.05,2.75,1.52,4.16s.64,2.93,1.07,4.38c.61,2.08.83,4.07,4.77,5.85-6.97-1.75-7.9-1.35-7.79-6.22.08-4.33.02-8.64-.08-12.96Z"/></g><g id="sea_adventure-1-70"><path class="cls-13_adventure-1-70 targetColor" d="M450.86,381.31c-16.77,11.72-37.44,19.35-57.58,23.24-65.53,12.64-133.24-1.58-199.86,2.97-28.03,1.89-56.07,7.17-84.1,5.22-13.94-.98-35.22-8.33-53.79-20.12-17.05-10.86-31.89-25.43-36.7-42.35-.44-1.64-.83-3.3-1.1-4.96,0,0,33.41-16.86,67.24-19.91,12.28-1.13,24.6-.42,35.4,3.56,1.93.71,3.89,1.42,5.85,2.17,29.67,11.01,61.1,22.96,91.15,14.06,12.61-3.74,23.92-10.98,36.23-15.67,24.05-9.04,50.7-8.14,74.09,2.49,6.32,2.91,12.58,6.59,19.52,6.98,12.97.71,23.38-9.85,34.72-16.15,1.28-.71,2.58-1.36,3.89-1.95,12.97-6.02,27.03-6.82,41.34-4.66,18.78,2.85,37.95,10.86,55.37,19.11.65.33-15.55,34.78-31.66,45.96Z" style="fill: rgb(104, 225, 253);"/><path class="cls-13_adventure-1-70 targetColor" d="M482.52,335.35c.65.33-15.58,34.78-31.66,45.96-30.74,7.3-62.89,6.33-94.59,6.62-98.49,1.04-197.24,15.33-295.25,5.3-1.8-.18-3.64-.39-5.49-.59-17.06-10.89-31.9-25.46-36.71-42.37-1.75-2.28-3.26-4.72-4.51-7.3-5.19-10.65-7.89-23.68-8.9-37.12,10.11-3.3,20.9-3.94,31.34-1.87,17.15,3.5,32.31,14.15,48.22,21.46,8.72,4.01,17.65,6.97,27.28,7.21,4.7.06,9.4-.45,13.98-1.52,11.01-2.4,21.69-7.3,32.4-11.13,43.35-15.49,90.65-14.09,136.67-12.49,29.26,1.01,59.05,2.14,86.65,11.96l3.89,1.42c8.25,3.03,16.77,6.14,25.28,4.36,6.21-1.27,11.24-4.83,16.05-9.02,5.22-4.6,10.11-9.85,15.81-13.74,11.36-7.68,35.28-11.74,46.06-.38,1.82,2.01,3.35,4.27,4.55,6.71-2.21,9.47-5.65,18.58-11.05,26.53Z" style="fill: rgb(104, 225, 253);"/></g></svg>